<?xml version="1.0" encoding="UTF-8"?>
<svg width="100" height="100" version="1.1" viewBox="0 0 26.458 26.458" xmlns="http://www.w3.org/2000/svg">
 <rect x="-2.0002e-5" y="-7.6344e-5" width="26.458" height="26.458" fill="#1976d2" stroke-linejoin="round" stroke-width="6.279" style="paint-order:stroke fill markers"/>
 <g transform="matrix(.21626 0 0 .21626 1.6781 -2.5355)" fill="#fff">
  <path d="m49.766 55.857h4.4766v34.078h-4.6641v-25.523l0.23438 1.5-8.3906 19.289h-3.3281l-8.3906-18.82 0.23438-1.9688v25.523h-4.6641v-34.078h4.4766l10.008 22.5z"/>
  <path d="m65.914 85.388h7.7109q3.7734 0 5.8359-1.9453 2.0859-1.9688 2.0859-5.5312v-10.031q0-3.5625-2.0859-5.5078-2.0625-1.9688-5.8359-1.9688h-7.7109v-4.5469h7.5703q4.1016 0 7.0078 1.4297t4.4297 4.1719q1.5234 2.7422 1.5234 6.6094v9.6562q0 3.8672-1.5234 6.6094t-4.4531 4.1719q-2.9062 1.4297-7.0078 1.4297h-7.5469zm-3.2344-29.531h4.7812v34.078h-4.7812z"/>
 </g>
</svg>
